<?xml version="1.0" encoding="utf-8"?>
<!-- Generator: Adobe Illustrator 16.0.0, SVG Export Plug-In . SVG Version: 6.00 Build 0)  -->
<!DOCTYPE svg PUBLIC "-//W3C//DTD SVG 1.1//EN" "http://www.w3.org/Graphics/SVG/1.1/DTD/svg11.dtd">
<svg version="1.1" id="Layer_1" xmlns="http://www.w3.org/2000/svg" xmlns:xlink="http://www.w3.org/1999/xlink" x="0px" y="0px"
	 width="1190.549px" height="841.891px" viewBox="0 0 1190.549 841.891" enable-background="new 0 0 1190.549 841.891"
	 xml:space="preserve">
<title>4.2</title>
<desc>Created with Sketch.</desc>
<g>
	<g>
		<g>
			<path d="M623.338,138.036v268.92c0,15.476-12.457,28.021-28.063,28.021c-15.499,0-28.062-12.558-28.062-28.021V137.944
				l-31.695,31.696c-10.858,10.858-28.469,10.853-39.504-0.183c-10.96-10.959-10.896-28.792-0.185-39.504l79.74-79.74
				c5.399-5.399,12.468-8.112,19.567-8.119l0.214,0.083c7.127,0.015,14.214,2.709,19.54,8.035l79.74,79.74
				c10.857,10.858,10.853,28.468-0.185,39.504c-10.959,10.959-28.792,10.895-39.504,0.183L623.338,138.036z M370.771,561.26h449.008
				V364.69c0-15.428,12.456-27.935,28.063-27.935c15.498,0,28.062,12.604,28.062,27.935v224.763c0,7.708-3.108,14.686-8.166,19.74
				c-5.134,5.069-12.123,8.192-19.857,8.192H342.67c-7.718,0-14.707-3.097-19.775-8.137c-5.114-5.159-8.25-12.138-8.25-19.797
				V364.689c0-15.428,12.456-27.935,28.063-27.935c15.498,0,28.062,12.604,28.062,27.935L370.771,561.26L370.771,561.26z"/>
		</g>
	</g>
</g>
</svg>
